# xmcd CD database file
#
# Track frame offsets:
#	150
#	12272
#	35990
#	51112
#	65985
#	82977
#	99682
#	111042
#	134457
#	150585
#	164917
#	176102
#	191202
#
# Disc length: 2685 seconds
#
# Revision: 0
# Processed by: cddbd v1.5.2PL0 Copyright (c) Steve Scherf et al.
# Submitted via: CDex 1.70beta2
#
DISCID=c00a7b0d
DTITLE=Astrud Gilberto, Stanley Turrentine - Astrud Gilberto, Stanley Turrentine   Astrud Gilberto with Stanley Turrentine
DYEAR=1971
DGENRE=Jazz
TTITLE0=Wanting Things (Bacharach-David) 
TTITLE1=Brazilian Tapestry (Rendeira) 
TTITLE2=To A Flame (Stills) 
TTITLE3=Solo El Fin (For All We Know) (Wilson-James-Freed)
TTITLE4=Zazueira (Jorge Ben)
TTITLE5=Ponteio (Edu Lobo-Capinan)  
TTITLE6=Traveling Light (Deodato-Everett)
TTITLE7=Vera Cruz (Nascimento-Everett) 
TTITLE8=Historia De Amor (Love Story) (Alpin-Sigman-Lai)
TTITLE9=Where There's A Heartache (There Must Be A Heart) (David-Bacharach)
TTITLE10=(bonus track) Just Be You (A.Gilberto)
TTITLE11=(bonus track) The Puppy Song (H.Nilsson)
TTITLE12=(bonus track) Polytechnical High (Deodato-Everett)
EXTD=YEAR: 1971
EXTT0=
EXTT1=
EXTT2=
EXTT3=
EXTT4=
EXTT5=
EXTT6=
EXTT7=
EXTT8=
EXTT9=
EXTT10=
EXTT11=
EXTT12=
PLAYORDER=
